<svg width="120" height="120" xmlns="http://www.w3.org/2000/svg" xml:space="preserve" version="1.1">
 <g id="Layer_1">
  <title>Layer 1</title>
  <g id="svg_1" stroke="null">
   <path id="svg_2" d="m17.31374,68.02481l33.04692,-33.04692l0,69.02883c0,5.54238 5.2823,9.56232 10.82469,9.56232c5.54238,0 9.6869,-3.5221 9.6869,-9.06449l-0.44017,-69.52666l33.04692,33.04692c1.95897,1.95964 4.52744,2.9398 7.09592,2.9398c2.56847,0 5.13695,-0.98015 7.09591,-2.9398c3.91928,-3.91861 3.91928,-10.27322 0,-14.1925l-50.17855,-50.17855c-3.91861,-3.91928 -10.27322,-3.91928 -14.1925,0l-50.17855,50.17855c-3.91928,3.91862 -3.91928,10.27322 0,14.1925c3.91928,3.91862 10.27389,3.91862 14.1925,0l0.00001,0z" fill="#b2bac2" stroke="#fff"/>
   <g id="svg_3" stroke="null"/>
   <g id="svg_4" stroke="null"/>
   <g id="svg_5" stroke="null"/>
   <g id="svg_6" stroke="null"/>
   <g id="svg_7" stroke="null"/>
   <g id="svg_8" stroke="null"/>
   <g id="svg_9" stroke="null"/>
   <g id="svg_10" stroke="null"/>
   <g id="svg_11" stroke="null"/>
   <g id="svg_12" stroke="null"/>
   <g id="svg_13" stroke="null"/>
   <g id="svg_14" stroke="null"/>
   <g id="svg_15" stroke="null"/>
   <g id="svg_16" stroke="null"/>
   <g id="svg_17" stroke="null"/>
  </g>
 </g>

</svg>